<?xml version="1.0" encoding="utf-8"?>
<!-- Generator: Adobe Illustrator 16.0.0, SVG Export Plug-In . SVG Version: 6.00 Build 0)  -->
<!DOCTYPE svg PUBLIC "-//W3C//DTD SVG 1.1//EN" "http://www.w3.org/Graphics/SVG/1.1/DTD/svg11.dtd">
<svg version="1.1" xmlns="http://www.w3.org/2000/svg" xmlns:xlink="http://www.w3.org/1999/xlink" x="0px" y="0px"
	 width="2035.444px" height="978.098px" viewBox="0 0 2035.444 978.098" enable-background="new 0 0 2035.444 978.098"
	 xml:space="preserve">
<g id="img">
</g>
<g id="Vrstva_1">
	<g>
		<g>
			<linearGradient id="SVGID_1_" gradientUnits="userSpaceOnUse" x1="317.5034" y1="776.7974" x2="765.1974" y2="465.5329">
				<stop  offset="0" style="stop-color:#5ABC8F"/>
				<stop  offset="0.2322" style="stop-color:#539F95"/>
				<stop  offset="0.5118" style="stop-color:#425F8B"/>
				<stop  offset="0.7583" style="stop-color:#283986"/>
				<stop  offset="0.9763" style="stop-color:#030145"/>
			</linearGradient>
			<path fill-rule="evenodd" clip-rule="evenodd" fill="url(#SVGID_1_)" d="M665.541,428.018
				c28.789,7.242,57.582,32.346,76.905,50.155c48.444,44.653,17.143,94.307-53.5,157.155
				c-70.917,63.09-175.712,121.508-217.343,133.749c-83.09,24.432-151.666-21.773-172.202-101.984
				C400.745,646.448,614.769,498.833,665.541,428.018L665.541,428.018z"/>
			<linearGradient id="SVGID_2_" gradientUnits="userSpaceOnUse" x1="308.1743" y1="160.7983" x2="760.7906" y2="395.0945">
				<stop  offset="0.0332" style="stop-color:#B2585B"/>
				<stop  offset="0.2654" style="stop-color:#AE555C"/>
				<stop  offset="0.5213" style="stop-color:#9D4B61"/>
				<stop  offset="0.7488" style="stop-color:#8D4DA1"/>
				<stop  offset="1" style="stop-color:#8655BF"/>
			</linearGradient>
			<path fill-rule="evenodd" clip-rule="evenodd" fill="url(#SVGID_2_)" d="M421.403,137.372
				c41.394-10.828,110.534,15.402,167.185,48.485c62.4,36.438,123.833,70.847,137.093,123.717
				c11.284,71.326,24.606,133.953,40.125,208.984c-17.959-42.035-123.04-96.666-230.716-148.797
				c-85.116-41.206-126.427-62.692-220.685-106.997C326.522,213.289,344.886,151.611,421.403,137.372L421.403,137.372z"/>
			<linearGradient id="SVGID_3_" gradientUnits="userSpaceOnUse" x1="311.3433" y1="134.3477" x2="205.8113" y2="732.8492">
				<stop  offset="0" style="stop-color:#EDA150"/>
				<stop  offset="0.2701" style="stop-color:#D1C768"/>
				<stop  offset="0.4929" style="stop-color:#96AE62"/>
				<stop  offset="0.7725" style="stop-color:#77B667"/>
				<stop  offset="1" style="stop-color:#318D31"/>
			</linearGradient>
			<path fill-rule="evenodd" clip-rule="evenodd" fill="url(#SVGID_3_)" d="M388.503,147.953c-3.9,4.459-11.147,8.915-15.048,13.375
				c-36.726,37.439-53.914,99.041-63.53,160.498c-26.642,170.271-39.894,360.933,58.515,439.699
				c-201.241-98.311-271.475-86.037-270.843-324.34c0.167-62.906,9.151-112.348,35.109-155.483
				C166.211,226.026,205.66,220.468,388.503,147.953L388.503,147.953z"/>
		</g>
		<g>
			<g>
				<path fill="#404040" d="M1012.307,427.005c-3.715,18.167-10.993,32.142-21.83,41.928c-10.84,9.785-22.836,14.678-35.982,14.678
					c-15.657,0-29.308-6.573-40.948-19.722c-11.647-13.147-17.464-30.913-17.464-53.294c0-21.679,6.446-39.293,19.344-52.843
					c12.895-13.55,28.38-20.324,46.444-20.324c13.549,0,24.691,3.59,33.423,10.764c8.732,7.177,13.098,14.629,13.098,22.357
					c0,3.815-1.232,6.901-3.69,9.258c-2.46,2.359-5.896,3.538-10.313,3.538c-5.922,0-10.387-1.905-13.396-5.721
					c-1.708-2.107-2.839-6.12-3.388-12.044c-0.553-5.921-2.584-10.437-6.097-13.549c-3.515-3.011-8.382-4.516-14.603-4.516
					c-10.041,0-18.118,3.714-24.24,11.14c-8.128,9.838-12.192,22.834-12.192,38.992c0,16.461,4.039,30.989,12.116,43.584
					c8.078,12.596,18.994,18.893,32.747,18.893c9.833,0,18.667-3.36,26.494-10.086c5.519-4.615,10.891-12.996,16.111-25.142
					L1012.307,427.005z"/>
				<path fill="#404040" d="M1122.596,337.428c20.874,0,37.636,7.93,50.284,23.787c10.738,13.55,16.107,29.107,16.107,46.67
					c0,12.346-2.96,24.841-8.882,37.486c-5.921,12.647-14.075,22.183-24.465,28.605c-10.386,6.421-21.957,9.635-34.699,9.635
					c-20.775,0-37.286-8.28-49.53-24.84c-10.339-13.949-15.508-29.607-15.508-46.971c0-12.646,3.137-25.217,9.411-37.712
					c6.271-12.496,14.526-21.729,24.764-27.701C1100.314,340.416,1111.155,337.428,1122.596,337.428z M1117.929,347.214
					c-5.319,0-10.666,1.581-16.032,4.742c-5.369,3.162-9.71,8.709-13.021,16.636c-3.313,7.929-4.97,18.118-4.97,30.561
					c0,20.074,3.991,37.388,11.968,51.94c7.979,14.554,18.492,21.829,31.539,21.829c9.735,0,17.767-4.012,24.091-12.044
					c6.322-8.028,9.485-21.828,9.485-41.401c0-24.488-5.271-43.757-15.81-57.81C1138.05,352.031,1128.969,347.214,1117.929,347.214z
					"/>
				<path fill="#404040" d="M1279.859,265.316v182.916c0,8.633,0.626,14.354,1.88,17.162c1.254,2.812,3.188,4.945,5.798,6.398
					c2.607,1.456,7.475,2.184,14.604,2.184v5.419h-67.599v-5.419c6.325,0,10.638-0.651,12.949-1.956
					c2.309-1.304,4.115-3.463,5.42-6.475c1.302-3.012,1.956-8.781,1.956-17.313V322.976c0-15.556-0.353-25.116-1.055-28.679
					c-0.702-3.562-1.832-5.996-3.384-7.301c-1.561-1.304-3.54-1.958-5.948-1.958c-2.613,0-5.924,0.805-9.938,2.409l-2.559-5.27
					l41.1-16.861H1279.859z"/>
				<path fill="#404040" d="M1388.646,265.316v182.916c0,8.633,0.625,14.354,1.88,17.162c1.254,2.812,3.188,4.945,5.798,6.398
					c2.606,1.456,7.475,2.184,14.604,2.184v5.419h-67.599v-5.419c6.325,0,10.638-0.651,12.949-1.956
					c2.308-1.304,4.114-3.463,5.42-6.475c1.302-3.012,1.956-8.781,1.956-17.313V322.976c0-15.556-0.353-25.116-1.054-28.679
					c-0.702-3.562-1.833-5.996-3.385-7.301c-1.56-1.304-3.541-1.958-5.947-1.958c-2.614,0-5.926,0.805-9.939,2.409l-2.559-5.27
					l41.101-16.861H1388.646z"/>
				<path fill="#404040" d="M1473.193,393.433c-0.102,20.474,4.868,36.534,14.905,48.175c10.034,11.644,21.829,17.462,35.378,17.462
					c9.034,0,16.884-2.482,23.561-7.451c6.675-4.969,12.27-13.474,16.784-25.519l4.669,3.011
					c-2.108,13.752-8.231,26.27-18.366,37.562c-10.139,11.291-22.833,16.937-38.09,16.937c-16.56,0-30.737-6.448-42.53-19.345
					c-11.793-12.895-17.688-30.235-17.688-52.015c0-23.584,6.046-41.977,18.14-55.176c12.095-13.197,27.275-19.797,45.542-19.797
					c15.455,0,28.152,5.095,38.088,15.281c9.938,10.188,14.905,23.813,14.905,40.874H1473.193z M1473.193,384.701h63.832
					c-0.504-8.831-1.559-15.055-3.162-18.668c-2.509-5.619-6.245-10.035-11.214-13.248c-4.971-3.211-10.161-4.817-15.582-4.817
					c-8.332,0-15.784,3.236-22.356,9.71C1478.134,364.15,1474.296,373.161,1473.193,384.701z"/>
				<path fill="#404040" d="M1646.864,429.112c-8.431-4.115-14.905-9.861-19.42-17.238c-4.516-7.377-6.773-15.53-6.773-24.464
					c0-13.649,5.142-25.391,15.43-35.229c10.287-9.835,23.461-14.754,39.519-14.754c13.148,0,24.541,3.213,34.175,9.636H1739
					c4.315,0,6.823,0.126,7.528,0.376c0.702,0.252,1.204,0.677,1.506,1.28c0.603,0.903,0.901,2.51,0.901,4.817
					c0,2.611-0.251,4.417-0.753,5.419c-0.298,0.503-0.825,0.903-1.577,1.205c-0.757,0.301-3.29,0.451-7.605,0.451h-17.914
					c5.62,7.227,8.43,16.462,8.43,27.701c0,12.849-4.919,23.839-14.752,32.97c-9.837,9.135-23.036,13.7-39.596,13.7
					c-6.827,0-13.799-1.002-20.925-3.011c-4.42,3.815-7.404,7.151-8.958,10.012c-1.559,2.859-2.333,5.294-2.333,7.301
					c0,1.707,0.826,3.364,2.483,4.967c1.653,1.607,4.894,2.763,9.71,3.463c2.81,0.402,9.834,0.753,21.077,1.054
					c20.674,0.503,34.073,1.203,40.195,2.107c9.335,1.307,16.788,4.77,22.357,10.388c5.569,5.624,8.353,12.545,8.353,20.775
					c0,11.34-5.317,21.981-15.955,31.918c-15.657,14.652-36.083,21.979-61.271,21.979c-19.373,0-35.734-4.366-49.081-13.098
					c-7.528-5.02-11.29-10.237-11.29-15.657c0-2.408,0.548-4.816,1.654-7.225c1.708-3.716,5.219-8.883,10.538-15.506
					c0.702-0.904,5.819-6.324,15.358-16.261c-5.22-3.108-8.91-5.895-11.066-8.354c-2.158-2.459-3.238-5.244-3.238-8.355
					c0-3.512,1.433-7.627,4.293-12.346C1629.928,444.418,1636.525,437.746,1646.864,429.112z M1645.359,479.395
					c-4.719,5.119-8.278,9.885-10.688,14.302s-3.613,8.481-3.613,12.195c0,4.818,2.909,9.033,8.731,12.646
					c10.034,6.222,24.539,9.333,43.509,9.333c18.066,0,31.39-3.188,39.97-9.559c8.582-6.375,12.872-13.174,12.872-20.399
					c0-5.22-2.561-8.935-7.678-11.142c-5.221-2.208-15.56-3.513-31.013-3.914C1674.866,482.256,1657.502,481.1,1645.359,479.395z
					 M1673.06,344.655c-7.427,0-13.65,2.961-18.667,8.882c-5.021,5.923-7.528,15.006-7.528,27.25
					c0,15.859,3.413,28.152,10.236,36.884c5.221,6.624,11.844,9.936,19.874,9.936c7.628,0,13.901-2.861,18.82-8.581
					c4.915-5.721,7.376-14.702,7.376-26.948c0-15.958-3.465-28.453-10.39-37.487C1687.663,347.967,1681.09,344.655,1673.06,344.655z
					"/>
				<path fill="#404040" d="M1865.4,459.523c-14.151,10.94-23.033,17.264-26.647,18.969c-5.419,2.507-11.191,3.765-17.314,3.765
					c-9.534,0-17.387-3.261-23.56-9.786c-6.173-6.523-9.259-15.105-9.259-25.744c0-6.723,1.508-12.545,4.519-17.463
					c4.115-6.824,11.266-13.249,21.451-19.271c10.187-6.022,27.123-13.347,50.811-21.98v-5.42c0-13.749-2.182-23.185-6.548-28.303
					c-4.365-5.119-10.716-7.678-19.045-7.678c-6.324,0-11.342,1.708-15.054,5.119c-3.815,3.413-5.722,7.328-5.722,11.743
					l0.302,8.732c0,4.618-1.181,8.181-3.54,10.688c-2.359,2.51-5.445,3.764-9.256,3.764c-3.715,0-6.754-1.303-9.109-3.915
					c-2.36-2.608-3.538-6.172-3.538-10.688c0-8.631,4.413-16.561,13.247-23.787c8.83-7.226,21.227-10.84,37.186-10.84
					c12.243,0,22.281,2.059,30.111,6.173c5.919,3.112,10.284,7.979,13.097,14.604c1.807,4.316,2.709,13.149,2.709,26.496v46.82
					c0,13.15,0.251,21.204,0.753,24.163c0.501,2.961,1.33,4.944,2.486,5.947c1.152,1.004,2.483,1.505,3.988,1.505
					c1.604,0,3.01-0.351,4.217-1.055c2.104-1.303,6.172-4.967,12.192-10.989v8.43c-11.24,15.056-21.979,22.583-32.217,22.583
					c-4.917,0-8.832-1.708-11.745-5.119C1867.004,473.575,1865.499,467.753,1865.4,459.523z M1865.4,449.737v-52.541
					c-15.155,6.022-24.941,10.289-29.354,12.796c-7.932,4.417-13.604,9.033-17.014,13.85c-3.413,4.818-5.118,10.087-5.118,15.808
					c0,7.227,2.155,13.225,6.475,17.991c4.312,4.767,9.28,7.15,14.901,7.15C1842.917,464.792,1852.953,459.774,1865.4,449.737z"/>
			</g>
		</g>
		<g>
			<path fill="#848484" d="M1085.356,636.256c4.795-10.202,10.761-18.598,17.908-25.19c7.145-6.59,13.742-10.078,19.795-10.46
				c3.341-0.212,6.274,1.155,8.799,4.096c2.521,2.942,3.925,6.635,4.204,11.077c0.831,13.16-3.351,25.819-12.543,37.977
				c-9.192,12.159-19.309,18.587-30.355,19.286c-3.004,0.191-5.816-0.45-8.437-1.92c-2.622-1.469-4.156-3.422-4.61-5.858
				c-0.295-1.978-0.959-3.421-1.994-4.334c-1.934-1.704-2.966-3.593-3.099-5.666c-0.242-3.85,0.295-12.149,1.613-24.892l4.138-38.37
				c1.435-12.878,2.577-20.853,3.422-23.923c0.849-3.07,1.877-5.153,3.08-6.249c1.204-1.096,2.737-1.703,4.599-1.82
				c2.962-0.188,4.606,2.281,4.931,7.4c0.308,4.866-0.89,11.781-3.595,20.746C1090.611,596.774,1087.995,612.808,1085.356,636.256z
				 M1085.169,657.489c2.465,3.965,5.259,5.849,8.39,5.65c4.822-0.305,9.795-2.627,14.917-6.966
				c5.118-4.338,9.408-10.258,12.863-17.764c3.454-7.505,5.026-13.753,4.708-18.747c-0.143-2.243-0.663-4.142-1.568-5.7
				c-0.908-1.557-1.975-2.296-3.203-2.218c-5.881,0.372-12.759,5.639-20.634,15.801
				C1092.768,637.709,1087.611,647.691,1085.169,657.489z"/>
			<path fill="#848484" d="M1201.911,639.844c0.373-0.789,0.815-1.878,1.323-3.27c2.458-6.783,4.775-12.125,6.95-16.021
				c2.176-3.898,4.602-7.651,7.287-11.262c2.681-3.61,5.16-6.38,7.44-8.309c2.276-1.929,4.365-3.304,6.268-4.125
				c1.901-0.822,3.767-1.29,5.585-1.405c3.681-0.233,6.754,0.688,9.225,2.762c2.465,2.074,3.794,4.594,3.981,7.554
				c0.083,1.312-0.254,2.524-1.013,3.632c-0.759,1.111-1.984,1.719-3.678,1.826c-1.777,0.113-3.454-0.567-5.035-2.038
				c-1.622-1.47-3.258-2.153-4.908-2.048c-4.401,0.278-10.158,5.996-17.268,17.151c-7.112,11.156-11.109,23.199-11.99,36.127
				c-0.216,3.327-0.882,5.556-1.997,6.69c-1.121,1.131-2.756,1.767-4.915,1.904c-2.073,0.13-3.674-1.32-4.801-4.35
				c-1.125-3.028-1.918-8.204-2.382-15.525c-0.127-1.988-0.298-6.375-0.518-13.159c-0.248-8.013-0.148-14.499,0.302-19.455
				c0.076-0.811,0.168-2.709,0.276-5.689c0.089-3.276,0.317-5.564,0.68-6.861c0.368-1.297,1.2-2.54,2.509-3.728
				c1.302-1.186,2.759-1.831,4.369-1.933c1.565-0.099,2.771,0.324,3.616,1.269c0.845,0.945,1.306,1.989,1.374,3.132
				c0.106,1.65-0.168,4.004-0.825,7.063c-0.762,3.404-1.188,5.745-1.276,7.025c-0.034,1.448-0.175,2.965-0.412,4.551
				c-0.309,1.846-0.429,6.654-0.362,14.425l0.086,2.352L1201.911,639.844z"/>
			<path fill="#848484" d="M1314.615,661.2c-5.798,0.367-10.72-1.531-14.761-5.693c-4.046-4.163-6.274-9.482-6.682-15.956
				c-0.691-10.917,2.3-21.908,8.971-32.973s15.127-16.919,25.366-17.567c6.771-0.429,12.426,1.827,16.966,6.764
				c4.538,4.939,7.033,11.005,7.491,18.199c0.695,11.002-3.008,21.474-11.107,31.418
				C1332.756,655.336,1324.011,660.605,1314.615,661.2z M1304.238,637.194c0.271,4.275,1.391,7.708,3.36,10.303
				c1.968,2.594,4.436,3.797,7.398,3.61c6.306-0.399,12.412-4.258,18.32-11.579c5.912-7.319,8.6-15.21,8.063-23.673
				c-0.326-5.205-1.813-9.35-4.452-12.433c-2.638-3.083-6.01-4.495-10.113-4.235c-6.813,0.431-12.396,4.98-16.755,13.646
				C1305.699,621.5,1303.759,629.62,1304.238,637.194z"/>
			<path fill="#848484" d="M1418.814,621.663c0.505-0.754,4.078-4.401,10.717-10.939c6.274-6.216,10.644-10.719,13.102-13.511
				c9.157-10.393,15.869-15.724,20.144-15.994c3.302-0.209,5.051,1.274,5.251,4.447c0.229,3.597-1.231,6.344-4.384,8.243
				c-4.094,2.426-9.518,6.369-16.264,11.831c-6.751,5.461-10.06,9.229-9.93,11.301c0.055,0.848,2.75,3.853,8.091,9.016
				c5.341,5.165,9.909,8.932,13.717,11.305c3.801,2.372,7.417,3.449,10.844,3.232l2.093-0.196c1.473-0.179,2.258,0.431,2.347,1.826
				c0.116,1.863-0.929,3.831-3.135,5.902c-2.207,2.073-5.214,3.229-9.021,3.471c-2.455,0.154-4.995-0.545-7.621-2.099
				c-2.625-1.554-7.392-5.894-14.301-13.019c-5.513-5.896-8.941-9.408-10.288-10.534c-1.347-1.125-2.441-1.661-3.289-1.607
				c-0.468,0.03-1.877,1.224-4.232,3.582c-2.36,2.359-3.617,4.116-3.776,5.273c-0.162,1.157-0.003,5.522,0.477,13.097l0.188,2.983
				c0.099,1.565-0.553,3.008-1.957,4.33c-1.402,1.32-2.972,2.035-4.705,2.145c-1.777,0.112-3.207-0.318-4.29-1.29
				c-1.079-0.972-1.657-2.009-1.727-3.11c-0.096-1.522,0.251-5.155,1.031-10.898c1.093-8.267,1.881-19.301,2.369-33.095
				c1.082-32.57,2.337-51.033,3.763-55.394c1.42-4.359,3.699-6.639,6.83-6.836c1.102-0.07,2.058,0.465,2.873,1.603
				c0.816,1.138,1.283,2.638,1.401,4.499c0.216,3.387-0.677,12.47-2.675,27.252C1420.462,593.305,1419.25,607.701,1418.814,621.663z
				"/>
			<path fill="#848484" d="M1577.209,619.798c0.272,4.316-3.217,9.762-10.466,16.339c-7.255,6.577-14.943,10.122-23.068,10.636
				c-6.811,0.431-12.196-1.246-16.152-5.032c-3.957-3.785-6.163-9.275-6.617-16.468c-0.769-12.102,2.588-23.87,10.065-35.304
				c7.475-11.434,16.057-17.457,25.748-18.07c3.172-0.201,5.833,0.672,7.97,2.619c2.144,1.946,3.305,4.378,3.493,7.298
				c0.409,6.517-2.388,12.96-8.402,19.33c-6.01,6.371-14.189,12.772-24.531,19.205c-2.124,1.282-3.135,2.833-3.02,4.651
				c0.222,3.513,1.416,6.263,3.581,8.25c2.166,1.988,5.236,2.855,9.215,2.603c9.097-0.575,18.067-6.198,26.91-16.868
				c1.309-1.484,2.321-2.251,3.041-2.296C1576.329,616.604,1577.072,617.641,1577.209,619.798z M1532.47,612.688
				c17.267-11.798,25.696-20.934,25.287-27.408c-0.161-2.54-1.384-3.735-3.67-3.591c-3.894,0.247-8.101,3.379-12.626,9.402
				C1536.935,597.111,1533.936,604.311,1532.47,612.688z"/>
			<path fill="#848484" d="M1642.061,612.001c0.374-0.79,0.815-1.879,1.323-3.271c2.461-6.783,4.775-12.124,6.95-16.021
				c2.176-3.897,4.605-7.651,7.288-11.262c2.68-3.611,5.16-6.38,7.439-8.309c2.276-1.929,4.369-3.303,6.271-4.124
				c1.901-0.821,3.763-1.291,5.582-1.406c3.68-0.232,6.756,0.689,9.224,2.763c2.467,2.074,3.794,4.594,3.982,7.554
				c0.082,1.313-0.254,2.524-1.014,3.633c-0.759,1.111-1.984,1.719-3.674,1.825c-1.778,0.113-3.458-0.567-5.035-2.039
				c-1.624-1.469-3.262-2.151-4.909-2.048c-4.404,0.279-10.157,5.997-17.271,17.152c-7.109,11.156-11.107,23.199-11.989,36.127
				c-0.213,3.328-0.881,5.557-1.997,6.69c-1.118,1.132-2.756,1.768-4.912,1.904c-2.074,0.131-3.678-1.319-4.801-4.35
				c-1.128-3.029-1.922-8.205-2.386-15.525c-0.123-1.989-0.298-6.375-0.514-13.159c-0.252-8.013-0.152-14.499,0.298-19.455
				c0.077-0.812,0.168-2.708,0.276-5.689c0.092-3.277,0.321-5.564,0.683-6.861c0.365-1.298,1.2-2.54,2.506-3.728
				c1.305-1.186,2.763-1.833,4.369-1.934c1.565-0.099,2.771,0.324,3.619,1.269c0.846,0.945,1.303,1.988,1.375,3.131
				c0.104,1.65-0.172,4.005-0.829,7.063c-0.759,3.405-1.187,5.746-1.272,7.026c-0.038,1.448-0.179,2.965-0.413,4.551
				c-0.312,1.846-0.432,6.654-0.365,14.426l0.086,2.352L1642.061,612.001z"/>
			<path fill="#848484" d="M1769.577,614.64c-0.174-2.75-3.756-5.667-10.75-8.753c-8.869-3.856-14.898-7.012-18.091-9.465
				c-3.193-2.452-4.893-5.308-5.099-8.568c-0.534-8.42,3.249-15.668,11.336-21.746c8.093-6.077,14.806-9.285,20.138-9.621
				c3.426-0.218,5.946,0.217,7.569,1.304c1.619,1.087,2.521,3.091,2.705,6.012c0.082,1.312-0.406,2.469-1.47,3.469
				c-1.063,1.002-1.911,1.524-2.544,1.564c-0.467,0.029-1.396-0.231-2.791-0.78c-1.394-0.506-2.299-0.746-2.721-0.719
				c-2.117,0.133-6.313,1.949-12.594,5.447c-6.277,3.499-9.293,7.194-9.046,11.087c0.149,2.37,1.426,4.445,3.833,6.225
				c2.406,1.781,6.662,3.881,12.761,6.299c4.929,1.983,8.9,4.185,11.92,6.606c3.022,2.421,4.645,5.389,4.864,8.9
				c0.41,6.474-3.734,11.825-12.428,16.049c-8.7,4.224-17.107,6.595-25.233,7.109c-6.856,0.433-10.431-1.678-10.724-6.332
				c-0.101-1.608,0.595-2.843,2.09-3.702c1.499-0.859,3.029-1.338,4.595-1.438c0.636-0.04,1.854,0.097,3.658,0.407
				c1.763,0.314,2.917,0.452,3.467,0.417c4.696-0.297,9.682-1.399,14.958-3.304C1765.257,619.205,1768.454,617.048,1769.577,614.64z
				"/>
		</g>
	</g>
</g>
</svg>
